<svg width="138" height="148" viewBox="0 0 138 148" fill="none" xmlns="http://www.w3.org/2000/svg">
<path d="M84.8999 94L96.8911 123.977C97.3517 125.127 97.8616 125.925 98.4209 126.372C99.0131 126.787 99.5394 127.01 100 127.042V128C99.0131 127.936 97.8452 127.904 96.4964 127.904C95.1805 127.872 93.8481 127.856 92.4993 127.856C90.986 127.856 89.5549 127.872 88.2061 127.904C86.8573 127.904 85.7881 127.936 84.9985 128V127.042C86.6763 126.978 87.7291 126.707 88.1567 126.228C88.6173 125.717 88.5186 124.648 87.8607 123.02L79.4717 100.752L80.3599 99.507L72.8592 118.47C72.1355 120.226 71.6913 121.663 71.5269 122.78C71.3953 123.898 71.4775 124.76 71.7736 125.366C72.1026 125.973 72.6125 126.404 73.3033 126.659C74.0271 126.883 74.8824 127.01 75.8694 127.042V128C74.7837 127.936 73.7475 127.904 72.7605 127.904C71.7736 127.872 70.7702 127.856 69.7504 127.856C69.0266 127.856 68.3358 127.872 67.6778 127.904C67.0527 127.904 66.4935 127.936 66 128V127.042C66.6909 126.915 67.3982 126.484 68.1219 125.749C68.8457 125.015 69.553 123.77 70.2438 122.014L81.4949 94C82.0213 94.0319 82.5806 94.0479 83.1727 94.0479C83.7978 94.0479 84.3735 94.0319 84.8999 94ZM88.3541 114.208V115.166H73.6488L74.1422 114.208H88.3541Z" fill="#476C61"/>
<path d="M74.7998 0C83.9998 0 91.5337 1.26646 97.4004 3.7998C103.267 6.33312 108.534 9.40005 113.2 13C114.667 14.1999 116 14.7998 117.2 14.7998C119.733 14.7996 121.4 10.7996 122.2 2.7998H126.8C126.533 7.9998 126.334 14.4 126.2 22C126.067 29.6 126 39.6 126 52H121.4C120.467 43.2 118.933 35.7329 116.8 29.5996C114.666 23.3331 110.599 17.9995 104.6 13.5996C101.533 11.0665 97.8661 9.13307 93.5996 7.7998C89.4665 6.33326 85.3333 5.59963 81.2002 5.59961C73.7336 5.59961 67.4002 7.66659 62.2002 11.7998C57.1336 15.7998 52.9998 21.1332 49.7998 27.7998C46.5998 34.3331 44.2665 41.6665 42.7998 49.7998C41.4665 57.7998 40.7998 65.8667 40.7998 74C40.7998 97.9998 43.8668 115.533 50 126.6C56.2667 137.666 64.9333 143.2 76 143.2C78.6666 143.2 81 142.934 83 142.4C85 141.734 86.6667 140.933 88 140C89.7333 138.8 90.9329 137.4 91.5996 135.8C92.2663 134.2 92.5996 132.2 92.5996 129.8V110C92.5996 103.733 92.0667 99.0667 91 96C89.9333 92.8 87.9333 90.6663 85 89.5996C82.2001 88.3997 78.0001 87.733 72.4004 87.5996V83.5996C75.3337 83.7329 78.8668 83.8667 83 84C87.1333 84 91.4667 84.0669 96 84.2002H108.6C114.6 84.2002 120.067 84.1333 125 84C130.067 83.8667 134.2 83.7329 137.4 83.5996V87.5996C135 87.7329 133.133 88.2 131.8 89C130.6 89.8 129.8 91.4 129.4 93.7998C129 96.1998 128.8 99.8666 128.8 104.8V144.4H124.8C124.666 142.134 124.134 139.667 123.2 137C122.267 134.333 120.733 133 118.6 133C117.666 133 116.333 133.267 114.6 133.8C112.866 134.333 110.133 135.534 106.4 137.4C101.467 140.067 96.1336 142.4 90.4004 144.4C84.8005 146.267 79.0668 147.2 73.2002 147.2C57.0669 147.2 43.5329 144.333 32.5996 138.6C21.7999 132.866 13.6668 124.666 8.2002 114C2.73353 103.2 0 90.2 0 75C2.16055e-06 59.9333 3.19961 46.7996 9.59961 35.5996C15.9996 24.3997 24.8001 15.667 36 9.40039C47.3333 3.13375 60.2665 2.85121e-05 74.7998 0ZM118 94C117.184 94.032 116.157 94.0637 114.919 94.0957C113.681 94.1277 112.427 94.1445 111.158 94.1445C109.678 94.1445 108.304 94.1277 107.035 94.0957C105.797 94.0637 104.785 94.032 104 94V94.9609C104.936 94.993 105.647 95.1206 106.13 95.3447C106.643 95.5369 106.975 95.921 107.126 96.4971C107.307 97.0413 107.398 97.9063 107.398 99.0908V122.909C107.398 124.062 107.307 124.927 107.126 125.503C106.975 126.079 106.658 126.463 106.175 126.655C105.692 126.847 104.967 126.975 104 127.039V128C104.785 127.936 105.797 127.904 107.035 127.904C108.304 127.872 109.678 127.855 111.158 127.855C112.427 127.855 113.681 127.872 114.919 127.904C116.157 127.904 117.184 127.936 118 128V127.039C117.033 126.975 116.308 126.847 115.825 126.655C115.342 126.463 115.009 126.079 114.828 125.503C114.677 124.927 114.602 124.062 114.602 122.909V99.0908C114.602 97.9063 114.677 97.0413 114.828 96.4971C114.979 95.9208 115.297 95.5368 115.78 95.3447C116.294 95.1207 117.034 94.9929 118 94.9609V94Z" fill="#476C61"/>
</svg>
